<svg width="277" height="69" viewBox="0 0 277 69" fill="none" xmlns="http://www.w3.org/2000/svg">
<g filter="url(#filter0_d_0_1)">
<rect x="9" y="9" width="259" height="51" rx="25.5" fill="white"/>
</g>
<path d="M41.0901 29.6837L44.8917 24.762C45.1633 24.3999 45.486 24.1342 45.8598 23.965C46.2336 23.7957 46.6237 23.7106 47.0302 23.7097C47.4366 23.7088 47.8271 23.7939 48.2019 23.965C48.5766 24.136 48.8988 24.4017 49.1686 24.762L52.9702 29.6837L58.7405 31.6185C59.3289 31.7995 59.7928 32.1335 60.1322 32.6205C60.4716 33.1074 60.6414 33.6447 60.6414 34.2321C60.6414 34.5036 60.6015 34.7752 60.5219 35.0467C60.4422 35.3183 60.3123 35.5785 60.1322 35.8274L56.3985 41.1226L56.5342 46.6892C56.5569 47.4812 56.2966 48.1488 55.7535 48.6919C55.2104 49.235 54.5768 49.5065 53.8527 49.5065C53.8075 49.5065 53.5585 49.4726 53.106 49.4047L47.0302 47.7075L40.9543 49.4047C40.8412 49.4499 40.7167 49.4785 40.581 49.4902C40.4452 49.502 40.3207 49.5074 40.2076 49.5065C39.4835 49.5065 38.8499 49.235 38.3068 48.6919C37.7637 48.1488 37.5034 47.4812 37.5261 46.6892L37.6618 41.0886L33.962 35.8274C33.781 35.5785 33.6507 35.3183 33.571 35.0467C33.4914 34.7752 33.452 34.5036 33.4529 34.2321C33.4529 33.6664 33.6172 33.1405 33.9458 32.6544C34.2743 32.1684 34.7323 31.823 35.3198 31.6185L41.0901 29.6837Z" fill="#FDCD08"/>
<path d="M86.9133 29.6837L90.715 24.762C90.9865 24.3999 91.3092 24.1342 91.683 23.965C92.0569 23.7957 92.447 23.7106 92.8534 23.7097C93.2598 23.7088 93.6504 23.7939 94.0251 23.965C94.3998 24.136 94.7221 24.4017 94.9918 24.762L98.7934 29.6837L104.564 31.6185C105.152 31.7995 105.616 32.1335 105.955 32.6205C106.295 33.1074 106.465 33.6447 106.465 34.2321C106.465 34.5036 106.425 34.7752 106.345 35.0467C106.265 35.3183 106.136 35.5785 105.955 35.8274L102.222 41.1226L102.357 46.6892C102.38 47.4812 102.12 48.1488 101.577 48.6919C101.034 49.235 100.4 49.5065 99.676 49.5065C99.6307 49.5065 99.3818 49.4726 98.9292 49.4047L92.8534 47.7075L86.7776 49.4047C86.6644 49.4499 86.54 49.4785 86.4042 49.4902C86.2684 49.502 86.144 49.5074 86.0308 49.5065C85.3067 49.5065 84.6731 49.235 84.13 48.6919C83.5869 48.1488 83.3267 47.4812 83.3493 46.6892L83.4851 41.0886L79.7853 35.8274C79.6043 35.5785 79.4739 35.3183 79.3943 35.0467C79.3146 34.7752 79.2752 34.5036 79.2761 34.2321C79.2761 33.6664 79.4404 33.1405 79.769 32.6544C80.0976 32.1684 80.5556 31.823 81.143 31.6185L86.9133 29.6837Z" fill="#FDCD08"/>
<path d="M132.737 29.6837L136.538 24.762C136.81 24.3999 137.132 24.1342 137.506 23.965C137.88 23.7957 138.27 23.7106 138.677 23.7097C139.083 23.7088 139.474 23.7939 139.848 23.965C140.223 24.136 140.545 24.4017 140.815 24.762L144.617 29.6837L150.387 31.6185C150.975 31.7995 151.439 32.1335 151.779 32.6205C152.118 33.1074 152.288 33.6447 152.288 34.2321C152.288 34.5036 152.248 34.7752 152.168 35.0467C152.089 35.3183 151.959 35.5785 151.779 35.8274L148.045 41.1226L148.181 46.6892C148.203 47.4812 147.943 48.1488 147.4 48.6919C146.857 49.235 146.223 49.5065 145.499 49.5065C145.454 49.5065 145.205 49.4726 144.752 49.4047L138.677 47.7075L132.601 49.4047C132.488 49.4499 132.363 49.4785 132.227 49.4902C132.092 49.502 131.967 49.5074 131.854 49.5065C131.13 49.5065 130.496 49.235 129.953 48.6919C129.41 48.1488 129.15 47.4812 129.173 46.6892L129.308 41.0886L125.609 35.8274C125.427 35.5785 125.297 35.3183 125.218 35.0467C125.138 34.7752 125.098 34.5036 125.099 34.2321C125.099 33.6664 125.264 33.1405 125.592 32.6544C125.921 32.1684 126.379 31.823 126.966 31.6185L132.737 29.6837Z" fill="#FDCD08"/>
<path d="M178.56 29.6837L182.361 24.762C182.633 24.3999 182.956 24.1342 183.33 23.965C183.703 23.7957 184.093 23.7106 184.5 23.7097C184.906 23.7088 185.297 23.7939 185.672 23.965C186.046 24.136 186.369 24.4017 186.638 24.762L190.44 29.6837L196.21 31.6185C196.799 31.7995 197.262 32.1335 197.602 32.6205C197.941 33.1074 198.111 33.6447 198.111 34.2321C198.111 34.5036 198.071 34.7752 197.992 35.0467C197.912 35.3183 197.782 35.5785 197.602 35.8274L193.868 41.1226L194.004 46.6892C194.027 47.4812 193.766 48.1488 193.223 48.6919C192.68 49.235 192.047 49.5065 191.322 49.5065C191.277 49.5065 191.028 49.4726 190.576 49.4047L184.5 47.7075L178.424 49.4047C178.311 49.4499 178.186 49.4785 178.051 49.4902C177.915 49.502 177.79 49.5074 177.677 49.5065C176.953 49.5065 176.32 49.235 175.776 48.6919C175.233 48.1488 174.973 47.4812 174.996 46.6892L175.132 41.0886L171.432 35.8274C171.251 35.5785 171.12 35.3183 171.041 35.0467C170.961 34.7752 170.922 34.5036 170.923 34.2321C170.923 33.6664 171.087 33.1405 171.415 32.6544C171.744 32.1684 172.202 31.823 172.789 31.6185L178.56 29.6837Z" fill="#FDCD08"/>
<path d="M224.383 29.6837L228.185 24.762C228.456 24.3999 228.779 24.1342 229.153 23.965C229.527 23.7957 229.917 23.7106 230.323 23.7097C230.73 23.7088 231.12 23.7939 231.495 23.965C231.87 24.136 232.192 24.4017 232.462 24.762L236.263 29.6837L242.034 31.6185C242.622 31.7995 243.086 32.1335 243.425 32.6205C243.765 33.1074 243.934 33.6447 243.934 34.2321C243.934 34.5036 243.894 34.7752 243.815 35.0467C243.735 35.3183 243.605 35.5785 243.425 35.8274L239.691 41.1226L239.827 46.6892C239.85 47.4812 239.59 48.1488 239.047 48.6919C238.503 49.235 237.87 49.5065 237.146 49.5065C237.1 49.5065 236.852 49.4726 236.399 49.4047L230.323 47.7075L224.247 49.4047C224.134 49.4499 224.01 49.4785 223.874 49.4902C223.738 49.502 223.614 49.5074 223.501 49.5065C222.776 49.5065 222.143 49.235 221.6 48.6919C221.057 48.1488 220.796 47.4812 220.819 46.6892L220.955 41.0886L217.255 35.8274C217.074 35.5785 216.944 35.3183 216.864 35.0467C216.784 34.7752 216.745 34.5036 216.746 34.2321C216.746 33.6664 216.91 33.1405 217.239 32.6544C217.567 32.1684 218.025 31.823 218.613 31.6185L224.383 29.6837Z" fill="#FDCD08"/>
<defs>
<filter id="filter0_d_0_1" x="0.4" y="0.4" width="276.2" height="68.2" filterUnits="userSpaceOnUse" color-interpolation-filters="sRGB">
<feFlood flood-opacity="0" result="BackgroundImageFix"/>
<feColorMatrix in="SourceAlpha" type="matrix" values="0 0 0 0 0 0 0 0 0 0 0 0 0 0 0 0 0 0 127 0" result="hardAlpha"/>
<feMorphology radius="1" operator="erode" in="SourceAlpha" result="effect1_dropShadow_0_1"/>
<feOffset/>
<feGaussianBlur stdDeviation="4.8"/>
<feComposite in2="hardAlpha" operator="out"/>
<feColorMatrix type="matrix" values="0 0 0 0 0 0 0 0 0 0 0 0 0 0 0 0 0 0 0.14 0"/>
<feBlend mode="normal" in2="BackgroundImageFix" result="effect1_dropShadow_0_1"/>
<feBlend mode="normal" in="SourceGraphic" in2="effect1_dropShadow_0_1" result="shape"/>
</filter>
</defs>
</svg>
