<svg width="28" height="27" viewBox="0 0 28 27" fill="none" xmlns="http://www.w3.org/2000/svg">
<path d="M8.38307 6.68372L12.1847 1.76196C12.4562 1.3999 12.7789 1.13424 13.1528 0.964976C13.5266 0.795713 13.9167 0.710629 14.3231 0.709724C14.7295 0.708819 15.1201 0.793903 15.4948 0.964976C15.8696 1.13605 16.1918 1.40171 16.4615 1.76196L20.2632 6.68372L26.0335 8.61848C26.6219 8.79951 27.0857 9.13351 27.4252 9.62048C27.7646 10.1074 27.9343 10.6447 27.9343 11.2321C27.9343 11.5036 27.8945 11.7752 27.8148 12.0467C27.7352 12.3183 27.6053 12.5785 27.4252 12.8274L23.6914 18.1226L23.8272 23.6892C23.8498 24.4812 23.5896 25.1488 23.0465 25.6919C22.5034 26.235 21.8698 26.5065 21.1457 26.5065C21.1004 26.5065 20.8515 26.4726 20.3989 26.4047L14.3231 24.7075L8.2473 26.4047C8.13416 26.4499 8.0097 26.4785 7.87392 26.4902C7.73815 26.502 7.61369 26.5074 7.50055 26.5065C6.77643 26.5065 6.14282 26.235 5.59973 25.6919C5.05664 25.1488 4.79641 24.4812 4.81904 23.6892L4.95481 18.0886L1.25501 12.8274C1.07398 12.5785 0.94364 12.3183 0.863987 12.0467C0.784334 11.7752 0.74496 11.5036 0.745865 11.2321C0.745865 10.6664 0.91015 10.1405 1.23872 9.65442C1.56729 9.16836 2.02529 8.82304 2.61274 8.61848L8.38307 6.68372Z" fill="#FDCD08"/>
</svg>
