<svg width="29" height="28" viewBox="0 0 29 28" fill="none" xmlns="http://www.w3.org/2000/svg">
<path d="M6.40997 3.50004C6.40958 4.29568 6.09312 5.05859 5.53023 5.62092C4.96734 6.18324 4.20412 6.49893 3.40847 6.49854C2.61282 6.49814 1.84992 6.18169 1.28759 5.6188C0.725264 5.0559 0.409576 4.29269 0.409974 3.49704C0.410371 2.70139 0.726823 1.93848 1.28971 1.37615C1.8526 0.813826 2.61582 0.498138 3.41147 0.498536C4.20712 0.498933 4.97003 0.815385 5.53235 1.37828C6.09468 1.94117 6.41037 2.70439 6.40997 3.50004ZM6.49997 8.72004H0.499973V27.5H6.49997V8.72004ZM15.98 8.72004H10.01V27.5H15.92V17.645C15.92 12.155 23.075 11.645 23.075 17.645V27.5H29V15.605C29 6.35004 18.41 6.69504 15.92 11.24L15.98 8.72004Z" fill="white"/>
</svg>
