<svg width="27" height="21" viewBox="0 0 27 21" fill="none" xmlns="http://www.w3.org/2000/svg">
<path d="M3.16665 20.8332C2.45623 20.8332 1.84829 20.5804 1.34281 20.075C0.837341 19.5695 0.584174 18.9611 0.583313 18.2498V2.74984C0.583313 2.03942 0.83648 1.43148 1.34281 0.926004C1.84915 0.420531 2.45709 0.167365 3.16665 0.166504H23.8333C24.5437 0.166504 25.1521 0.41967 25.6584 0.926004C26.1648 1.43234 26.4175 2.04028 26.4166 2.74984V18.2498C26.4166 18.9603 26.1639 19.5686 25.6584 20.075C25.153 20.5813 24.5446 20.834 23.8333 20.8332H3.16665ZM13.5 11.7915L3.16665 5.33317V18.2498H23.8333V5.33317L13.5 11.7915ZM13.5 9.20817L23.8333 2.74984H3.16665L13.5 9.20817ZM3.16665 5.33317V2.74984V18.2498V5.33317Z" fill="white"/>
</svg>
