<svg width="28" height="27" viewBox="0 0 28 27" fill="none" xmlns="http://www.w3.org/2000/svg">
<path d="M8.0901 6.68372L11.8917 1.76196C12.1633 1.3999 12.486 1.13424 12.8598 0.964976C13.2336 0.795713 13.6237 0.710629 14.0302 0.709724C14.4366 0.708819 14.8271 0.793903 15.2019 0.964976C15.5766 1.13605 15.8988 1.40171 16.1686 1.76196L19.9702 6.68372L25.7405 8.61848C26.3289 8.79951 26.7928 9.13351 27.1322 9.62048C27.4716 10.1074 27.6414 10.6447 27.6414 11.2321C27.6414 11.5036 27.6015 11.7752 27.5219 12.0467C27.4422 12.3183 27.3123 12.5785 27.1322 12.8274L23.3985 18.1226L23.5342 23.6892C23.5569 24.4812 23.2966 25.1488 22.7535 25.6919C22.2104 26.235 21.5768 26.5065 20.8527 26.5065C20.8075 26.5065 20.5585 26.4726 20.106 26.4047L14.0302 24.7075L7.95433 26.4047C7.84119 26.4499 7.71673 26.4785 7.58096 26.4902C7.44518 26.502 7.32072 26.5074 7.20758 26.5065C6.48346 26.5065 5.84985 26.235 5.30677 25.6919C4.76367 25.1488 4.50344 24.4812 4.52607 23.6892L4.66185 18.0886L0.962043 12.8274C0.781013 12.5785 0.650671 12.3183 0.571018 12.0467C0.491365 11.7752 0.451991 11.5036 0.452896 11.2321C0.452896 10.6664 0.617181 10.1405 0.94575 9.65442C1.27432 9.16836 1.73233 8.82304 2.31977 8.61848L8.0901 6.68372Z" fill="#FDCD08"/>
</svg>
