<svg width="29" height="27" viewBox="0 0 29 27" fill="none" xmlns="http://www.w3.org/2000/svg">
<path d="M8.55983 6.68372L12.3615 1.76196C12.633 1.3999 12.9557 1.13424 13.3295 0.964976C13.7033 0.795713 14.0935 0.710629 14.4999 0.709724C14.9063 0.708819 15.2969 0.793903 15.6716 0.964976C16.0463 1.13605 16.3686 1.40171 16.6383 1.76196L20.4399 6.68372L26.2103 8.61848C26.7986 8.79951 27.2625 9.13351 27.6019 9.62048C27.9414 10.1074 28.1111 10.6447 28.1111 11.2321C28.1111 11.5036 28.0713 11.7752 27.9916 12.0467C27.9119 12.3183 27.7821 12.5785 27.6019 12.8274L23.8682 18.1226L24.004 23.6892C24.0266 24.4812 23.7664 25.1488 23.2233 25.6919C22.6802 26.235 22.0466 26.5065 21.3225 26.5065C21.2772 26.5065 21.0283 26.4726 20.5757 26.4047L14.4999 24.7075L8.42406 26.4047C8.31091 26.4499 8.18646 26.4785 8.05068 26.4902C7.91491 26.502 7.79045 26.5074 7.67731 26.5065C6.95319 26.5065 6.31958 26.235 5.77649 25.6919C5.2334 25.1488 4.97317 24.4812 4.9958 23.6892L5.13157 18.0886L1.43177 12.8274C1.25074 12.5785 1.1204 12.3183 1.04074 12.0467C0.961091 11.7752 0.921718 11.5036 0.922623 11.2321C0.922623 10.6664 1.08691 10.1405 1.41548 9.65442C1.74405 9.16836 2.20205 8.82304 2.7895 8.61848L8.55983 6.68372Z" fill="#FDCD08"/>
</svg>
