<svg width="28" height="27" viewBox="0 0 28 27" fill="none" xmlns="http://www.w3.org/2000/svg">
<path d="M7.91335 6.68372L11.715 1.76196C11.9865 1.3999 12.3092 1.13424 12.683 0.964976C13.0569 0.795713 13.447 0.710629 13.8534 0.709724C14.2598 0.708819 14.6504 0.793903 15.0251 0.964976C15.3998 1.13605 15.7221 1.40171 15.9918 1.76196L19.7934 6.68372L25.5638 8.61848C26.1521 8.79951 26.616 9.13351 26.9554 9.62048C27.2949 10.1074 27.4646 10.6447 27.4646 11.2321C27.4646 11.5036 27.4248 11.7752 27.3451 12.0467C27.2655 12.3183 27.1356 12.5785 26.9554 12.8274L23.2217 18.1226L23.3575 23.6892C23.3801 24.4812 23.1199 25.1488 22.5768 25.6919C22.0337 26.235 21.4001 26.5065 20.676 26.5065C20.6307 26.5065 20.3818 26.4726 19.9292 26.4047L13.8534 24.7075L7.77757 26.4047C7.66443 26.4499 7.53997 26.4785 7.4042 26.4902C7.26843 26.502 7.14397 26.5074 7.03082 26.5065C6.3067 26.5065 5.6731 26.235 5.13001 25.6919C4.58692 25.1488 4.32669 24.4812 4.34932 23.6892L4.48509 18.0886L0.785285 12.8274C0.604255 12.5785 0.473914 12.3183 0.39426 12.0467C0.314607 11.7752 0.275233 11.5036 0.276138 11.2321C0.276138 10.6664 0.440423 10.1405 0.768993 9.65442C1.09756 9.16836 1.55557 8.82304 2.14301 8.61848L7.91335 6.68372Z" fill="#FDCD08"/>
</svg>
