<svg width="20" height="16" viewBox="0 0 20 16" fill="none" xmlns="http://www.w3.org/2000/svg">
<path d="M2.66671 15.3333C2.16254 15.3333 1.7311 15.154 1.37237 14.7952C1.01365 14.4365 0.833985 14.0048 0.833374 13.5V2.5C0.833374 1.99583 1.01304 1.56439 1.37237 1.20566C1.73171 0.846942 2.16315 0.667275 2.66671 0.666664H17.3334C17.8375 0.666664 18.2693 0.846331 18.6286 1.20566C18.988 1.565 19.1673 1.99644 19.1667 2.5V13.5C19.1667 14.0042 18.9873 14.4359 18.6286 14.7952C18.2699 15.1546 17.8382 15.3339 17.3334 15.3333H2.66671ZM10 8.91666L2.66671 4.33333V13.5H17.3334V4.33333L10 8.91666ZM10 7.08333L17.3334 2.5H2.66671L10 7.08333ZM2.66671 4.33333V2.5V13.5V4.33333Z" fill="white"/>
</svg>
