<svg width="28" height="27" viewBox="0 0 28 27" fill="none" xmlns="http://www.w3.org/2000/svg">
<path d="M7.73659 6.68372L11.5382 1.76196C11.8098 1.3999 12.1325 1.13424 12.5063 0.964976C12.8801 0.795713 13.2702 0.710629 13.6766 0.709724C14.083 0.708819 14.4736 0.793903 14.8484 0.964976C15.2231 1.13605 15.5453 1.40171 15.8151 1.76196L19.6167 6.68372L25.387 8.61848C25.9754 8.79951 26.4393 9.13351 26.7787 9.62048C27.1181 10.1074 27.2878 10.6447 27.2878 11.2321C27.2878 11.5036 27.248 11.7752 27.1684 12.0467C27.0887 12.3183 26.9588 12.5785 26.7787 12.8274L23.0449 18.1226L23.1807 23.6892C23.2033 24.4812 22.9431 25.1488 22.4 25.6919C21.8569 26.235 21.2233 26.5065 20.4992 26.5065C20.454 26.5065 20.205 26.4726 19.7525 26.4047L13.6766 24.7075L7.60081 26.4047C7.48767 26.4499 7.36321 26.4785 7.22744 26.4902C7.09167 26.502 6.96721 26.5074 6.85407 26.5065C6.12995 26.5065 5.49634 26.235 4.95325 25.6919C4.41016 25.1488 4.14993 24.4812 4.17256 23.6892L4.30833 18.0886L0.608528 12.8274C0.427498 12.5785 0.297156 12.3183 0.217502 12.0467C0.137849 11.7752 0.0984753 11.5036 0.0993805 11.2321C0.0993805 10.6664 0.263665 10.1405 0.592235 9.65442C0.920804 9.16836 1.37881 8.82304 1.96625 8.61848L7.73659 6.68372Z" fill="#FDCD08"/>
</svg>
